<svg width="1278" height="973" viewBox="0 0 1278 973" fill="none" xmlns="http://www.w3.org/2000/svg">
<path d="M974 65C936.1 100.8 904.8 130 904.5 130C904.2 130 904 126.4 904 122V114H452H0V533V952H22.5H45V962.5V973H486H927L927.2 704.3L927.5 435.6L1102 304.3C1198 232 1276.9 172.5 1277.3 172.1C1277.7 171.7 1257.7 156.5 1232.8 138.3C1207.9 120.2 1155 81.6 1115.3 52.7L1043 0.0999855L974 65ZM882 143.3V151.6L631.4 387.6C493.6 517.3 380.5 623.6 380.1 623.7C379.8 623.9 364 578.9 345.1 523.7C326.2 468.6 310.6 423.2 310.4 422.9C310.2 422.6 274.4 427.9 230.8 434.6C187.2 441.4 125.9 450.8 94.5 455.6C63.1 460.4 37.4 464.5 37.2 464.6C36.9 464.8 315.1 874.2 323 885.2L325.6 888.8L603 679.9C755.6 565 880.8 471 881.3 471C881.7 471 882 574.5 882 701V931H452.5H23V533V135H452.5H882V143.3Z" fill="white"/>
</svg>
